<svg id="Layer_1" data-name="Layer 1" xmlns="http://www.w3.org/2000/svg" viewBox="0 0 409 232"><path d="M328.23,20.35c-5.16-4.07-11.32-9.63-22.53-11C295.17,7.94,284.45,15,277.2,19.65S256.25,38,250.6,42.19s-20.16,8-43.49,22S92.25,137,92.25,137l23.82.3L9.85,192H20.47L5.18,203.62S18.68,207.19,30,200v3.28s126.48-49.84,150.9-36.93L166,170.75c1.29,0,25.32,1.59,25.32,1.59A34.07,34.07,0,0,0,206.62,197c14.49,9.53,14.79,14.8,14.79,14.8s-7.55,3.07-7.55,7c0,0,11.12-3.38,21.45-3.08a82.17,82.17,0,0,1,19.36,3.08s-.8-4.17-10.83-7-20-13.7-24.81-19.66A27.83,27.83,0,0,1,215,164.9c3.48-9,15.59-14,40.61-26.91,29.49-15.29,36.24-26.6,40.41-35.44s10.32-26.41,13.8-34.65c4.36-10.62,9.72-16.28,14.19-19.65s24.33-10.83,24.33-10.83S333.1,24.22,328.23,20.35Z" style="fill:#fac8d3"/><path d="M349.23,23.35c-5.16-4.07-11.32-9.63-22.53-11-10.53-1.39-21.25,5.66-28.5,10.32S277.25,41,271.6,45.19s-20.16,8-43.49,22S113.25,140,113.25,140l23.82.3L30.85,195H41.47L26.18,206.62S39.68,210.19,51,203v3.28s126.48-49.84,150.9-36.93L187,173.75c1.29,0,25.32,1.59,25.32,1.59A34.07,34.07,0,0,0,227.62,200c14.49,9.53,14.79,14.8,14.79,14.8s-7.55,3.07-7.55,7c0,0,11.12-3.38,21.45-3.08a82.17,82.17,0,0,1,19.36,3.08s-.8-4.17-10.83-7S244.89,201.06,240,195.1A27.83,27.83,0,0,1,236,167.9c3.48-9,15.59-14,40.61-26.91,29.49-15.29,36.24-26.6,40.41-35.44s10.32-26.41,13.8-34.65c4.36-10.62,9.72-16.28,14.19-19.65s24.33-10.83,24.33-10.83S354.1,27.22,349.23,23.35Z" style="fill:#f282ab"/><path d="M368.23,26.35c-5.16-4.07-11.32-9.63-22.53-11-10.53-1.39-21.25,5.66-28.5,10.32S296.25,44,290.6,48.19s-20.16,8-43.49,22S132.25,143,132.25,143l23.82.3L49.85,198H60.47L45.18,209.62S58.68,213.19,70,206v3.28s126.48-49.84,150.9-36.93L206,176.75c1.29,0,25.32,1.59,25.32,1.59A34.07,34.07,0,0,0,246.62,203c14.49,9.53,14.79,14.8,14.79,14.8s-7.55,3.07-7.55,7c0,0,11.12-3.38,21.45-3.08a82.17,82.17,0,0,1,19.36,3.08s-.8-4.17-10.83-7S263.89,204.06,259,198.1A27.83,27.83,0,0,1,255,170.9c3.48-9,15.59-14,40.61-26.91,29.49-15.29,36.24-26.6,40.41-35.44s10.32-26.41,13.8-34.65c4.36-10.62,9.72-16.28,14.19-19.65s24.33-10.83,24.33-10.83S373.1,30.22,368.23,26.35Z" style="fill:#ed2789"/><path d="M389.23,30.35c-5.16-4.07-11.32-9.63-22.53-11-10.53-1.39-21.25,5.66-28.5,10.32S317.25,48,311.6,52.19s-20.16,8-43.49,22S153.25,147,153.25,147l23.82.3L70.85,202H81.47L66.18,213.62S79.68,217.19,91,210v3.28s126.48-49.84,150.9-36.93L227,180.75c1.29,0,25.32,1.59,25.32,1.59A34.07,34.07,0,0,0,267.62,207c14.49,9.53,14.79,14.8,14.79,14.8s-7.55,3.07-7.55,7c0,0,11.12-3.38,21.45-3.08a82.17,82.17,0,0,1,19.36,3.08s-.8-4.17-10.83-7S284.89,208.06,280,202.1A27.83,27.83,0,0,1,276,174.9c3.48-9,15.59-14,40.61-26.91,29.49-15.29,36.24-26.6,40.41-35.44s10.32-26.41,13.8-34.65c4.36-10.62,9.72-16.28,14.19-19.65s24.33-10.83,24.33-10.83S394.1,34.22,389.23,30.35Z"/></svg>